<?xml version="1.0" encoding="UTF-8"?>
<svg width="32" height="32" viewBox="0 0 32 32" xmlns="http://www.w3.org/2000/svg">
  <!-- Background circle for stability -->
  <circle cx="16" cy="16" r="15" fill="#1A2637" stroke="none"/>
  
  <!-- Hotel/house silhouette base -->
  <path d="M8 20.8 L12 16.8 L20 16.8 L24 20.8 L24 26 L8 26 Z" fill="#F36F21"/>
  
  <!-- Roof/top of hotel -->
  <path d="M10 16.8 L16 12 L22 16.8 Z" fill="#F36F21"/>
  
  <!-- Jacuzzi basin -->
  <ellipse cx="16" cy="19.2" rx="6.4" ry="3.2" fill="#FFFFFF" opacity="0.9"/>
  <ellipse cx="16" cy="19.2" rx="5.6" ry="2.4" fill="#1A2637" opacity="0.1"/>
  
  <!-- Water surface with subtle ripple -->
  <ellipse cx="16" cy="18.8" rx="4.8" ry="1.6" fill="#F36F21" opacity="0.3"/>
  
  <!-- Bubbles -->
  <circle cx="12.8" cy="18" r="0.6" fill="#FFFFFF" opacity="0.8"/>
  <circle cx="14.4" cy="16.8" r="0.4" fill="#FFFFFF" opacity="0.7"/>
  <circle cx="17.6" cy="17.2" r="0.48" fill="#FFFFFF" opacity="0.6"/>
  <circle cx="19.2" cy="18" r="0.4" fill="#FFFFFF" opacity="0.8"/>
  <circle cx="16" cy="16" r="0.32" fill="#FFFFFF" opacity="0.9"/>
  <circle cx="13.6" cy="15.6" r="0.24" fill="#FFFFFF" opacity="0.7"/>
  <circle cx="18.4" cy="16.4" r="0.28" fill="#FFFFFF" opacity="0.6"/>
  
  <!-- Heart accent for romance -->
  <path d="M20 14 C20 13.2, 20.8 12.4, 21.6 13.2 C22.4 12.4, 23.2 13.2, 23.2 14 C23.2 14.8, 21.6 16.4, 21.6 16.4 C21.6 16.4, 20 14.8, 20 14 Z" fill="#F36F21" opacity="0.8"/>
</svg>
