<svg viewBox="0 0 105 105" xmlns="http://www.w3.org/2000/svg">
  <!-- Background Circle -->
  <circle cx="52.5" cy="52.5" r="52.5" fill="#1A2637"/>
  
  <!-- Water/Jacuzzi Base -->
  <path d="m34.3559418 52.7407799s1-9.2822456 8.25-7.1572456 9.625 2.875 12.375.375 15.9489288-2.875 17.0369644 1.125 14.1925583.0751228 18.7130356 1.3245392c1.6402435.4533463 5.25 4.3327065 5.25 4.3327065h-61.625z" fill="#F36F21" opacity="0.5"/>
  
  <!-- Water Surface -->
  <path d="m95.9858246 52.7388077h-3.1499023c-.7900391-.6401367-1.5600586-1.1801758-2.1098633-1.3300781-4.5200195-1.25-17.6201172 2.6796875-18.7099609-1.3203125-1.0900879-4-14.2900391-3.6298828-17.0302734-1.1298828-2.7597656 2.5-5.1298828 1.75-12.3798828-.3701172-4.4299316-1.2998047-6.5300293 1.6601563-7.4899902 4.1503906h-.7600098s1-9.2802734 8.25-7.1503906c7.25 2.1201172 9.6201172 2.8701172 12.3798828.3701172 2.7402344-2.5 15.9401855-2.8701172 17.0302734 1.1298828 1.0898438 4 14.1899414.0703125 18.7099609 1.3203125 1.6499023.449707 5.2597656 4.3300781 5.2597656 4.3300781z" fill="#FFFFFF" opacity="0.9"/>
  
  <!-- Jacuzzi Basin -->
  <path d="m96.587265 59.9835739v3.023819c0 18.2147293-14.7719116 32.9866409-32.9866447 32.9866409h-22.1680909c-18.214735 0-32.9764175-14.7619324-32.9764175-32.9761658v-3.0342941z" fill="#F36F21" opacity="0.8"/>
  
  <!-- Water Gradient Effect -->
  <path d="m95.8559418 69.9087296c-3.1699219 14.909668-16.4099121 26.0898438-32.2600098 26.0898438h-22.1599121c-12.8300781 0-23.9501953-7.3300781-29.4001465-18.0302734 8.5200186 1.3300781 18.1101074 2.0703125 28.2399902 2.0703125 23.75-.0000001 44.4902344-4.0703126 55.5800782-10.1298829z" fill="#1A2637" opacity="0.4"/>
  
  <!-- Bubbles -->
  <circle cx="45" cy="32" r="2" fill="#FFFFFF" opacity="0.9"/>
  <circle cx="55" cy="29" r="1.5" fill="#FFFFFF" opacity="0.8"/>
  <circle cx="62" cy="36" r="1.2" fill="#FFFFFF" opacity="0.9"/>
  <circle cx="50" cy="40" r="1.8" fill="#FFFFFF" opacity="0.7"/>
  <circle cx="40" cy="37" r="1.4" fill="#FFFFFF" opacity="0.8"/>
  <circle cx="58" cy="42" r="1" fill="#FFFFFF" opacity="0.6"/>
  
  <!-- Romantic Star Detail -->
  <path d="m61.3929749 12.3237085c-2.9717941.6121521-5.3094254 2.9570789-5.9215775 5.928998-.0367966.1769772-.2728348.1769772-.3096352 0-.3023148-1.4896202-1.0398064-2.8170013-2.0796089-3.8493862-1.0249672-1.0323858-2.3523483-1.7771959-3.8419685-2.0796118-.1769791-.0367994-.1769791-.2728357 0-.3096352 1.4896202-.3023157 2.8170013-1.0471258 3.8493881-2.0796118 1.032383-1.0322847 1.7698746-2.359767 2.0721893-3.8492861.0368004-.1769776.2728386-.1769776.3096352 0 .3024178 1.4895191 1.0398064 2.8170013 2.0721931 3.8492861 1.032383 1.032486 2.3597679 1.7772961 3.8493843 2.0796118.1769791.0367995.1769791.2728358.0000001.3096352z" fill="#F36F21" opacity="0.8"/>
</svg>
